<?xml version="1.0" standalone="no"?>
<!DOCTYPE svg PUBLIC "-//W3C//DTD SVG 20010904//EN"
 "http://www.w3.org/TR/2001/REC-SVG-20010904/DTD/svg10.dtd">
<svg version="1.0" xmlns="http://www.w3.org/2000/svg"
 width="2087.000000pt" height="2087.000000pt" viewBox="0 0 2087.000000 2087.000000"
 preserveAspectRatio="xMidYMid meet">
<metadata>
Created by potrace 1.11, written by Peter Selinger 2001-2013
</metadata>
<g transform="translate(0.000000,2087.000000) scale(0.100000,-0.100000)"
fill="#000000" stroke="none">
<path d="M4855 15465 c-957 -51 -2257 -121 -2889 -154 -1269 -68 -1198 -60
-1263 -134 -18 -20 -37 -54 -42 -74 -5 -21 -156 -1975 -336 -4343 -256 -3382
-324 -4313 -316 -4340 12 -42 64 -98 106 -116 17 -6 57 -15 90 -19 32 -5 65
-14 72 -21 14 -14 18 -28 5 -20 -4 2 -8 -4 -8 -14 0 -12 4 -16 11 -10 7 6 10
-3 9 -26 -2 -28 1 -33 11 -24 11 9 13 6 10 -15 -2 -18 2 -25 11 -21 9 3 11 0
7 -11 -4 -11 -2 -14 5 -9 7 4 12 1 12 -9 0 -10 -5 -13 -12 -9 -7 4 -8 3 -4 -5
6 -8 12 -9 20 -2 17 15 29 1 14 -16 -6 -8 -7 -13 -2 -12 14 3 44 -12 44 -23 0
-5 -5 -6 -12 -2 -7 4 -8 3 -4 -5 6 -9 11 -9 21 -1 11 10 13 8 10 -9 -3 -18 -1
-20 16 -10 17 9 21 7 26 -10 4 -14 13 -21 30 -21 15 0 22 -4 18 -11 -4 -6 -1
-9 6 -8 8 2 24 -2 36 -9 16 -9 24 -9 29 -1 5 8 13 4 26 -12 12 -15 16 -18 12
-6 -5 13 -2 16 10 11 9 -3 13 -11 9 -17 -4 -6 -1 -7 7 -2 22 14 60 12 60 -3 0
-9 5 -10 19 -2 25 13 34 13 25 -1 -5 -8 -1 -8 14 0 15 8 22 8 25 -2 4 -8 6 -8
6 2 1 11 5 10 16 -5 15 -19 15 -19 8 1 -6 18 -5 18 10 6 9 -7 17 -10 17 -5 0
5 22 9 49 9 39 0 47 -3 39 -13 -8 -10 -6 -11 8 -5 10 3 22 11 26 17 5 7 8 3 9
-9 0 -19 1 -19 8 -1 7 17 8 17 24 2 16 -16 17 -16 17 1 1 17 2 17 15 -1 15
-20 15 -20 15 0 0 16 2 17 10 4 7 -11 10 -11 10 -2 0 9 5 10 19 2 23 -12 34
-13 28 -2 -3 4 5 7 18 7 15 0 20 -4 15 -10 -6 -7 -2 -11 9 -11 10 0 17 5 15
11 -2 5 7 10 20 10 20 0 22 -3 13 -15 -9 -11 -5 -10 15 3 17 10 29 13 33 7 4
-6 11 -8 16 -5 5 4 9 0 9 -7 0 -8 3 -9 8 -3 8 12 37 13 48 2 10 -10 26 -9 20
1 -3 5 2 9 10 9 9 0 13 -6 9 -16 -3 -11 0 -10 10 3 9 12 15 15 15 7 0 -11 3
-11 17 0 9 8 14 9 10 2 -8 -13 11 -22 35 -15 10 2 15 9 11 16 -3 6 2 4 11 -5
13 -12 27 -14 56 -9 32 6 37 4 32 -8 -4 -11 -2 -13 9 -6 21 13 39 14 39 1 0
-7 5 -5 10 3 6 10 10 11 10 3 0 -7 10 -13 23 -13 17 0 19 2 7 10 -12 7 -10 9
7 7 12 0 19 -5 17 -9 -3 -4 -1 -8 5 -8 5 0 13 5 16 11 5 7 15 4 32 -6 14 -10
23 -12 19 -7 -3 6 -2 13 4 17 5 3 10 1 10 -6 0 -8 5 -7 17 2 14 12 16 12 11
-1 -4 -11 0 -16 13 -16 11 0 18 5 15 11 -2 7 2 12 10 12 8 0 14 -7 14 -14 0
-8 5 -11 10 -8 6 4 8 10 6 14 -3 4 1 8 9 8 8 0 15 -4 15 -9 0 -5 5 -6 10 -3 6
4 8 10 5 15 -3 4 4 6 15 3 11 -3 17 -9 14 -14 -3 -5 0 -9 5 -9 6 0 11 7 11 15
0 8 6 12 14 9 8 -3 17 0 21 6 5 8 10 8 20 0 10 -9 16 -7 23 7 6 10 23 20 38
21 15 1 31 7 35 13 4 8 8 7 12 -2 4 -9 6 -8 6 5 1 11 6 16 15 13 9 -4 19 5 27
24 9 22 14 27 20 17 6 -10 9 -8 10 7 1 11 1 24 0 29 -1 5 5 4 13 -4 9 -7 17
-10 17 -6 1 3 3 11 4 16 1 6 3 15 4 21 0 5 7 7 14 3 8 -5 7 -2 -2 9 -12 15
-12 17 3 11 12 -5 15 -2 10 10 -4 9 -1 16 6 16 7 0 10 7 6 16 -4 10 -2 13 6 8
8 -5 9 -2 5 10 -6 14 -3 17 9 12 14 -5 15 -4 5 8 -10 11 -7 19 11 36 21 19 21
20 3 14 -17 -7 -18 -5 -8 7 7 9 11 25 8 38 -2 12 -1 19 4 17 4 -3 12 4 19 14
10 17 9 18 -6 13 -15 -6 -15 -5 -3 10 7 10 11 30 9 47 -4 24 -1 30 10 25 12
-4 12 -3 3 9 -9 11 -9 15 1 20 11 5 11 7 0 12 -10 5 -10 9 0 22 7 9 8 13 3 10
-6 -4 -11 2 -11 13 0 10 4 19 8 19 4 0 8 -5 8 -12 0 -6 3 -9 6 -6 3 4 1 16 -6
27 -8 16 -8 21 2 21 8 0 9 3 3 8 -5 4 -10 21 -10 38 0 24 4 30 15 26 13 -5 13
-4 1 12 -8 10 -15 26 -16 37 -1 15 1 17 13 6 13 -10 14 -9 5 8 -9 18 -9 33 -3
53 6 19 4 38 -4 44 -6 4 -4 13 3 22 11 12 11 16 1 16 -10 0 -10 4 1 16 8 9 9
18 3 22 -11 8 -13 82 -1 82 4 0 7 7 7 16 0 8 -5 12 -10 9 -6 -3 -10 -2 -10 3
0 6 8 13 17 16 15 6 15 8 3 16 -11 7 -11 10 -2 10 9 0 10 5 3 19 -8 14 -7 20
5 25 13 5 12 9 -3 33 -17 26 -17 27 1 20 20 -8 20 -7 1 13 -14 15 -15 19 -4
15 10 -4 16 0 16 10 0 8 -5 15 -10 15 -5 0 -3 8 4 17 12 15 12 16 -1 8 -13 -8
-13 -7 -1 8 7 10 9 17 3 17 -11 0 -10 13 3 43 4 9 5 24 1 32 -3 8 0 15 7 15 8
0 6 4 -3 10 -12 8 -12 10 -1 10 11 0 11 3 1 15 -11 13 -10 14 4 9 14 -6 15 -3
1 22 -10 19 -11 32 -4 40 7 8 6 14 -1 19 -8 5 -6 13 5 25 10 11 12 20 7 24 -6
3 -9 14 -7 24 2 9 4 21 4 25 1 5 7 5 14 2 6 -4 3 1 -7 9 -15 12 -17 19 -8 28
9 9 7 15 -6 25 -12 9 -13 12 -2 8 11 -4 15 4 17 32 2 27 -1 33 -7 23 -5 -8
-10 -11 -10 -6 0 5 7 17 16 27 12 13 12 19 3 25 -8 4 -10 3 -5 -4 4 -7 3 -12
-2 -12 -6 0 -9 11 -8 24 1 20 4 22 15 13 12 -10 12 -9 2 11 -9 17 -9 22 1 22
8 0 9 3 3 8 -15 11 -17 32 -3 32 9 0 8 4 -2 10 -8 5 -10 10 -4 10 7 0 15 7 18
16 5 13 3 14 -6 6 -10 -8 -13 -5 -13 14 0 16 5 22 13 19 8 -3 10 0 5 8 -11 17
-15 49 -5 43 4 -2 8 4 8 14 0 10 -3 17 -6 15 -4 -2 -7 2 -7 10 0 8 4 12 9 9 4
-3 8 0 8 5 0 6 -6 11 -12 11 -9 0 -8 3 2 10 8 5 11 12 8 15 -4 4 -3 18 2 31 7
17 6 24 -3 24 -8 0 -7 3 2 9 12 8 13 14 3 36 -11 23 -10 26 1 22 8 -3 14 1 14
9 0 7 -4 11 -8 8 -4 -2 -10 0 -14 6 -3 5 -1 10 5 10 6 0 8 12 5 31 -3 17 -2
28 3 25 5 -3 9 1 9 9 0 8 -5 15 -11 15 -6 0 -4 5 4 10 10 6 11 10 3 10 -7 0
-13 5 -13 11 0 5 4 8 8 5 4 -2 8 4 8 15 0 10 -4 19 -9 19 -4 0 -5 5 -2 10 4 6
12 8 18 4 7 -3 3 2 -7 10 -11 9 -14 16 -8 16 7 0 12 9 12 21 0 11 -4 18 -8 15
-15 -9 -10 28 6 47 14 16 14 17 1 12 -10 -4 -16 0 -16 9 0 8 4 13 8 10 4 -2
10 0 14 6 3 5 2 10 -2 10 -5 0 -9 9 -9 20 0 11 3 20 6 20 8 0 4 55 -5 69 -4 8
-2 16 5 21 9 6 9 9 0 15 -8 5 -6 13 7 28 10 11 12 17 6 13 -15 -8 -18 10 -3
19 7 4 6 13 -1 26 -7 15 -7 24 2 35 9 11 9 14 -2 14 -10 0 -11 2 -2 8 7 5 11
31 10 70 -2 51 1 61 12 57 10 -4 8 2 -5 16 -10 12 -13 19 -5 14 11 -6 13 -4 8
7 -3 9 0 21 6 28 7 8 8 10 1 7 -15 -9 -10 78 6 98 11 13 10 14 -6 8 -18 -7
-18 -6 -1 20 15 24 16 26 0 20 -12 -5 -14 -3 -7 8 12 20 14 38 2 45 -5 4 -3
13 7 24 9 10 12 21 7 24 -5 3 -6 23 -2 45 4 22 3 46 -1 53 -13 20 -11 28 9 29
14 0 14 2 -3 9 -11 5 -15 9 -9 9 6 1 9 11 7 25 -3 13 0 27 7 31 8 5 8 10 -1
21 -9 11 -8 18 2 31 9 11 10 14 2 9 -9 -5 -11 -2 -7 8 3 9 10 13 15 10 5 -3 6
2 3 10 -3 9 -10 14 -14 11 -5 -3 -6 4 -3 15 3 11 10 20 15 20 6 0 6 5 -1 14
-9 11 -8 15 4 20 9 3 13 11 10 17 -4 5 -8 21 -10 35 -2 19 1 24 13 19 12 -4
13 -3 2 10 -10 12 -10 15 1 15 11 0 11 2 -1 10 -13 8 -12 10 4 10 15 0 16 3 7
14 -7 8 -8 17 -3 20 5 3 12 19 16 36 3 17 10 29 16 25 6 -4 7 1 3 11 -5 14 -3
16 10 11 15 -6 16 -4 6 14 -8 15 -8 19 0 15 6 -4 11 -2 11 4 0 6 4 8 10 5 6
-4 7 1 3 11 -5 14 -3 16 12 11 15 -6 16 -5 5 8 -11 13 -10 14 5 9 13 -5 16 -4
11 4 -4 7 -1 12 9 12 10 0 13 5 9 13 -5 7 -2 7 10 -2 15 -12 17 -12 14 0 -2 8
4 13 14 13 10 -1 15 3 11 9 -4 6 0 8 11 4 10 -4 15 -3 11 3 -4 6 5 10 20 10
15 0 24 4 20 10 -9 14 8 13 23 -2 9 -9 12 -8 12 6 0 16 2 17 17 5 9 -8 14 -9
10 -3 -4 7 0 15 9 18 24 9 31 7 14 -5 -12 -9 -12 -10 3 -5 10 3 23 6 28 6 6 0
8 4 5 8 -2 4 11 6 31 4 28 -4 34 -2 29 9 -4 8 -1 6 7 -3 8 -10 17 -18 20 -18
4 0 3 8 0 18 -6 15 -5 15 10 3 14 -11 17 -11 17 0 0 11 2 11 10 -1 8 -12 10
-12 10 -1 0 11 3 11 15 1 12 -10 15 -10 15 0 0 10 3 10 14 1 11 -9 15 -9 19 1
4 10 7 10 15 -1 8 -11 10 -11 15 0 4 12 7 11 16 -1 9 -13 11 -12 11 4 0 20 0
20 14 0 14 -19 15 -19 22 0 7 19 8 19 15 0 6 -16 8 -16 8 -2 1 11 6 15 16 12
8 -4 12 -11 9 -18 -3 -6 1 -3 9 6 10 13 16 15 25 6 9 -9 12 -9 12 2 0 9 5 8
15 -6 9 -11 14 -13 13 -5 -2 11 12 14 64 14 38 0 74 -6 82 -12 10 -9 16 -8 26
4 11 13 15 13 21 3 5 -7 9 -8 9 -3 0 11 102 11 119 0 6 -3 11 -1 11 6 0 8 4 8
15 -1 12 -10 15 -10 15 1 0 12 2 12 9 0 7 -11 9 -11 14 0 3 11 9 9 21 -6 15
-18 15 -18 10 -1 -6 16 -4 17 14 7 17 -9 22 -9 22 1 0 10 2 10 9 -1 6 -9 11
-10 15 -2 5 8 13 8 27 1 14 -8 19 -7 19 2 0 10 2 10 9 -1 7 -11 9 -11 14 0 4
12 7 11 16 -1 8 -11 11 -11 11 -2 0 9 5 10 19 2 14 -7 21 -6 24 3 4 9 6 9 6
-1 1 -8 6 -10 13 -6 15 9 132 9 147 0 6 -4 11 -2 11 5 0 7 7 4 16 -7 8 -10 13
-14 10 -7 -8 15 11 27 20 12 4 -8 9 -7 15 2 7 11 9 11 9 1 0 -8 5 -10 12 -6
14 9 132 9 146 0 6 -3 13 0 15 6 3 7 6 4 7 -7 0 -17 2 -17 10 -5 9 16 78 19
100 5 6 -3 10 0 10 7 0 10 2 10 9 -1 7 -11 9 -11 14 0 3 11 9 9 21 -6 15 -18
15 -18 10 -1 -6 16 -4 17 14 7 15 -8 22 -8 25 2 4 9 6 9 6 -1 1 -8 6 -10 13
-6 15 9 132 9 147 0 6 -4 11 -2 11 5 0 7 7 4 15 -7 8 -10 15 -14 14 -9 -3 22
2 29 11 15 5 -8 10 -10 10 -5 0 15 111 9 121 -7 7 -10 9 -8 9 6 0 15 3 16 15
6 12 -10 15 -10 15 1 0 12 2 12 9 0 7 -11 9 -11 14 0 3 11 9 9 21 -6 15 -18
15 -18 10 -1 -6 16 -4 17 14 7 17 -9 22 -9 22 1 0 10 2 10 9 -1 6 -9 11 -10
15 -2 5 8 13 8 27 1 14 -8 19 -7 19 2 0 10 2 10 9 -1 7 -11 9 -11 14 0 4 12 7
11 16 -1 8 -11 11 -11 11 -2 0 9 5 10 19 2 14 -7 21 -6 24 3 4 9 6 9 6 -1 1
-8 6 -10 13 -6 15 9 132 9 147 0 6 -4 11 -1 11 6 0 10 2 10 9 -1 6 -10 10 -10
16 -1 6 9 10 9 16 -1 5 -8 9 -9 9 -3 0 12 41 11 61 -2 8 -4 9 -3 5 4 -10 16 7
15 23 0 10 -9 12 -9 7 -1 -3 6 -2 14 4 18 5 3 10 1 10 -5 0 -6 5 -8 12 -4 6 4
36 9 66 11 31 2 59 9 64 16 7 11 12 3 9 -15 -2 -13 6 -9 20 9 12 14 12 16 0 8
-10 -5 -12 -4 -7 3 5 9 13 9 28 1 13 -7 18 -7 14 -1 -3 6 -2 13 3 16 5 4 12 2
16 -4 9 -15 22 -12 29 6 6 15 4 15 -11 3 -16 -11 -16 -11 -5 1 13 15 17 17 52
19 13 1 17 6 14 16 -5 11 -2 13 12 8 13 -5 16 -3 12 9 -5 11 0 14 17 12 16 -1
22 2 19 11 -3 7 0 16 5 20 6 3 8 12 4 18 -4 8 -1 7 9 -1 13 -10 18 -10 24 -1
4 8 3 9 -4 5 -18 -11 -14 10 4 25 8 7 13 20 11 30 -3 12 0 16 9 12 10 -4 12 0
8 11 -4 9 -1 16 6 16 9 0 9 4 -1 17 -10 11 -10 14 -1 9 7 -4 12 -2 12 4 0 6 4
9 9 6 10 -7 9 20 -2 30 -4 4 -7 12 -7 18 0 6 5 4 11 -4 8 -11 9 -6 7 23 -3 29
-1 36 9 32 9 -3 11 0 6 7 -13 23 -11 49 5 43 11 -4 11 0 -3 21 -10 15 -12 23
-4 19 9 -6 11 -3 6 8 -4 10 -2 17 5 17 7 0 7 4 0 13 -9 10 -7 19 4 35 14 20
14 23 -2 29 -16 6 -15 7 2 20 10 7 13 13 8 13 -6 0 -11 7 -11 15 0 8 4 15 8
15 10 0 6 34 -6 42 -5 4 -1 15 10 28 14 15 15 19 4 15 -10 -4 -16 0 -16 9 0 8
3 15 6 14 19 -2 24 4 11 12 -11 7 -11 10 -2 10 10 0 10 5 1 21 -8 16 -8 24 2
33 9 8 10 8 4 -3 -6 -10 -4 -12 4 -7 9 6 8 13 -6 29 -14 16 -15 19 -3 15 11
-4 16 0 16 13 0 11 -3 19 -6 19 -3 0 -6 14 -5 30 0 17 4 30 10 30 5 0 3 5 -5
10 -12 8 -12 10 -1 10 11 0 11 3 0 17 -12 15 -12 16 3 10 12 -4 15 -2 11 9 -3
7 -10 14 -17 14 -6 0 -4 5 4 10 11 7 11 10 2 10 -7 0 -10 5 -7 10 4 6 12 8 18
4 7 -3 3 2 -7 10 -13 10 -15 16 -7 16 11 0 11 3 1 15 -10 12 -10 15 1 15 12 0
12 2 0 9 -9 6 -10 10 -2 16 9 5 9 10 0 21 -6 8 -9 25 -7 39 4 18 1 25 -11 26
-10 0 -12 2 -3 6 14 5 17 33 3 33 -5 0 -8 13 -7 29 2 22 -2 28 -14 23 -12 -4
-12 -2 -3 8 14 15 6 40 -12 40 -8 0 -12 8 -10 20 2 11 -1 20 -7 20 -6 0 -8 3
-5 7 4 3 -3 11 -16 17 -12 7 -22 20 -22 30 0 11 -6 21 -14 24 -9 3 -11 0 -6
-9 5 -8 4 -11 -1 -6 -5 5 -10 13 -10 18 -1 5 -2 13 -3 19 0 5 -9 7 -18 3 -10
-3 -15 -3 -11 2 4 4 3 14 -3 22 -9 10 -15 11 -26 2 -11 -9 -12 -9 -7 4 4 12 1
15 -15 12 -12 -2 -21 0 -21 6 0 5 -7 9 -15 9 -8 0 -15 5 -15 10 0 6 -5 10 -11
10 -5 0 -7 -6 -3 -12 6 -9 3 -9 -9 0 -9 8 -22 10 -29 6 -8 -5 -8 -1 2 11 14
17 14 18 -7 6 -23 -11 -23 -11 -23 46 -1 94 -45 170 -118 200 -45 19 -112 18
-1552 -7 -1321 -24 -1374 -24 -1364 -8 5 7 2 9 -8 6 -17 -7 -20 32 -3 44 6 5
5 8 -4 8 -10 0 -11 3 -2 14 9 11 9 16 0 22 -8 5 -9 3 -4 -6 6 -9 4 -11 -4 -6
-9 6 -8 12 4 26 15 17 15 19 -2 29 -10 6 -12 11 -5 11 6 0 12 5 12 11 0 5 -4
8 -9 5 -10 -7 -8 29 5 58 6 15 4 17 -7 11 -12 -8 -12 -6 0 8 7 9 11 24 7 32
-3 8 0 15 7 15 8 0 7 4 -3 10 -13 9 -13 11 0 20 13 8 13 10 0 10 -10 0 -11 3
-2 12 7 7 8 17 2 29 -7 12 -6 22 4 31 11 11 11 16 -2 28 -11 10 -12 15 -4 18
7 2 12 13 12 23 0 11 -4 18 -9 15 -15 -10 -7 28 9 42 13 12 12 13 -4 7 -20 -6
-20 -6 0 16 10 12 14 19 8 16 -15 -9 -27 20 -12 29 7 5 8 2 3 -6 -5 -9 -4 -11
4 -6 6 4 8 12 4 19 -12 20 -10 58 4 53 13 -5 7 19 -10 42 -6 8 -5 17 3 27 7 8
10 15 7 15 -3 0 -2 14 3 30 6 21 5 30 -3 30 -6 0 -2 7 9 16 10 8 14 13 8 10
-7 -3 -15 1 -18 10 -3 8 -2 12 4 9 6 -3 10 -3 11 2 0 4 2 18 3 31 2 12 -2 22
-8 22 -6 0 -4 5 4 10 10 6 11 10 3 10 -7 0 -13 5 -13 11 0 5 4 7 10 4 6 -4 7
2 1 17 -4 13 -5 32 -1 43 4 11 3 26 -4 34 -9 12 -8 13 2 7 10 -6 13 -2 11 15
-2 13 0 30 4 37 5 7 3 12 -4 12 -7 0 -4 7 7 16 10 8 14 13 7 10 -18 -9 -22 18
-4 32 14 12 14 13 1 9 -10 -3 -16 2 -16 14 0 11 7 19 14 19 11 0 12 3 3 14 -9
11 -9 15 1 19 10 4 10 6 -1 6 -11 1 -11 4 0 18 8 9 9 14 4 11 -6 -4 -11 2 -11
12 0 13 4 16 11 10 14 -11 14 18 0 39 -5 9 -4 12 2 8 6 -4 13 0 16 7 3 8 1 17
-6 19 -7 3 -1 9 13 15 22 9 22 11 5 12 -15 0 -17 2 -6 9 7 5 11 13 7 19 -3 6
-1 14 5 18 8 4 9 3 5 -4 -4 -7 -3 -12 2 -12 6 0 12 7 16 15 3 8 0 15 -6 15 -7
0 -4 6 7 13 10 8 15 19 11 25 -4 7 -3 12 3 12 5 0 12 -6 14 -12 3 -7 6 -4 6 7
1 11 10 26 22 33 17 11 20 11 14 0 -4 -7 2 -3 12 8 10 12 33 27 51 35 17 8 32
17 32 22 0 4 10 3 21 -4 16 -8 20 -8 14 1 -5 8 -1 11 11 8 11 -2 25 3 32 12
10 12 14 12 19 2 4 -10 8 -10 21 0 12 10 14 10 8 1 -9 -15 -5 -16 28 -4 17 7
26 7 30 -2 2 -7 5 -3 5 7 1 19 1 19 15 1 13 -18 13 -18 24 1 6 10 12 13 12 6
0 -10 5 -10 21 -1 12 6 19 7 15 1 -3 -5 1 -13 10 -16 12 -5 15 -2 10 10 -5 14
-4 15 9 4 12 -10 15 -10 15 1 0 9 3 10 11 2 7 -7 21 -8 40 -3 18 5 27 5 24 -1
-4 -5 -1 -9 4 -9 6 0 11 6 11 13 0 7 7 4 15 -7 14 -18 15 -19 15 -2 0 17 2 17
25 2 21 -14 24 -14 19 -1 -4 8 -1 15 5 15 6 0 11 -5 11 -12 0 -9 3 -9 12 0 15
15 28 15 28 1 0 -5 -5 -7 -12 -3 -7 5 -8 3 -3 -6 6 -10 10 -10 19 3 9 11 17
12 29 6 9 -6 17 -6 17 -2 0 10 62 9 78 -1 7 -4 12 -3 12 3 0 10 18 10 37 -2 6
-4 15 -2 19 4 5 8 3 9 -6 4 -8 -5 -11 -4 -7 2 7 11 46 11 65 0 7 -5 12 -4 12
2 0 6 5 11 11 11 5 0 8 -3 6 -7 -8 -13 51 -7 66 6 12 9 18 8 31 -4 15 -15 16
-15 16 0 0 13 4 14 20 5 15 -8 20 -8 20 1 0 8 4 8 15 -1 12 -10 16 -9 21 5 5
13 9 14 15 3 6 -10 11 -10 20 -1 10 10 15 9 24 -4 10 -13 14 -13 20 -3 6 9 4
11 -5 5 -9 -5 -11 -4 -6 3 5 8 13 9 25 3 9 -5 22 -6 29 -2 6 3 29 6 52 4 22
-1 39 1 36 5 -7 12 78 1 93 -12 12 -9 13 -8 8 8 -7 17 -6 17 10 5 15 -12 16
-12 9 5 -6 19 -6 19 12 3 22 -20 36 -22 26 -4 -5 8 -2 8 9 -2 13 -10 17 -10
17 -1 0 10 3 10 15 0 12 -10 15 -10 15 1 0 11 2 11 10 -1 5 -8 10 -10 10 -4 0
6 13 9 30 6 17 -2 38 2 47 9 10 8 14 9 10 2 -4 -6 -3 -14 3 -18 5 -3 10 -2 10
4 0 6 11 6 30 1 21 -6 30 -5 30 3 0 7 4 6 10 -3 8 -12 10 -12 10 -1 0 11 3 11
15 1 11 -9 15 -9 15 -1 0 9 5 9 20 1 11 -6 20 -7 20 -3 0 5 17 8 38 7 20 -1
43 3 51 9 12 9 13 9 7 0 -4 -7 -3 -13 1 -13 5 0 15 6 22 13 11 10 12 9 6 -1
-8 -16 26 -13 37 3 5 6 8 5 8 -4 0 -11 3 -11 15 -1 12 10 15 10 15 -1 0 -9 3
-10 8 -4 4 6 18 11 32 10 14 0 28 5 32 10 4 6 8 1 9 -10 l0 -20 9 20 c5 11 9
15 9 9 1 -12 80 -2 103 12 8 5 9 1 4 -11 -5 -15 -4 -16 8 -6 8 7 21 9 27 5 8
-4 9 -3 5 4 -4 7 -2 12 3 12 6 0 11 -6 11 -12 0 -9 4 -8 10 2 8 12 10 12 10 1
0 -11 5 -10 24 3 15 10 27 12 31 6 3 -6 11 -10 16 -10 6 0 8 4 5 8 -3 5 5 7
17 6 12 -1 30 -3 40 -3 11 -1 16 -6 12 -13 -4 -7 0 -5 8 4 11 14 16 15 26 5 9
-9 14 -9 21 3 9 13 10 13 10 0 0 -12 2 -12 8 -2 7 9 15 10 35 3 15 -6 27 -7
27 -3 0 7 153 6 198 -2 12 -2 22 1 22 7 0 5 7 4 15 -3 9 -8 15 -9 15 -2 0 11
31 9 52 -4 7 -5 8 -3 3 6 -6 10 -4 12 7 7 9 -3 19 -3 23 1 8 9 65 10 65 1 0
-4 7 -9 14 -12 10 -4 13 -1 10 8 -4 10 0 13 16 10 13 -2 25 -7 28 -10 3 -2 11
0 19 6 10 9 13 8 13 -1 0 -10 4 -10 16 1 13 10 17 10 25 -2 6 -10 9 -10 9 -1
0 6 6 12 14 12 8 0 16 3 19 8 2 4 3 3 2 -3 -2 -5 8 -10 21 -10 13 0 24 2 24 5
0 8 44 5 58 -4 8 -4 11 -3 10 5 -2 6 3 14 11 17 10 3 12 0 7 -13 -5 -15 -4
-16 9 -5 20 17 75 21 75 6 0 -6 5 -4 10 4 7 11 10 11 10 2 0 -7 5 -10 10 -7 6
4 8 10 6 14 -6 9 31 8 39 -1 3 -3 21 -2 40 2 20 5 33 4 29 -1 -3 -5 0 -9 5 -9
6 0 11 3 11 8 0 9 114 7 129 -2 6 -4 11 1 11 11 0 10 3 14 8 8 11 -16 65 -18
56 -2 -4 6 1 4 11 -5 17 -16 19 -16 32 0 8 9 12 11 8 5 -3 -7 -3 -13 2 -14 4
0 18 -2 30 -3 12 -1 22 0 21 3 -2 19 4 24 12 11 8 -13 13 -13 31 -2 11 8 18 9
15 4 -3 -6 1 -12 9 -16 8 -3 14 -2 14 2 -3 19 2 25 11 12 8 -13 10 -13 10 -1
0 11 4 9 15 -5 8 -10 14 -14 13 -9 -2 6 2 12 7 13 6 2 16 8 23 14 9 8 11 7 7
-3 -4 -10 1 -15 14 -15 11 0 17 5 14 13 -4 9 3 10 26 3 17 -5 29 -5 26 0 -3 4
2 10 10 14 10 3 15 -1 16 -12 0 -13 3 -11 9 6 11 26 22 30 14 5 -4 -13 -1 -12
11 4 17 22 51 21 38 -1 -4 -7 -1 -7 9 1 8 7 17 12 19 10 2 -1 -2 3 -9 9 -10 9
-6 12 15 12 14 0 31 6 37 14 6 8 17 13 24 11 6 -3 12 3 12 14 0 14 2 15 9 5 6
-11 10 -10 15 3 3 10 12 15 20 12 10 -4 13 0 11 13 -2 11 1 23 7 26 7 4 8 2 4
-4 -4 -7 -2 -12 3 -12 6 0 11 6 11 14 0 8 5 18 12 22 7 5 8 3 3 -6 -5 -9 -4
-11 4 -6 8 6 9 11 2 20 -8 9 -6 17 7 29 9 8 22 16 27 17 6 1 9 8 7 16 -2 8 4
24 13 36 18 27 20 41 3 33 -7 -4 -2 3 11 14 13 12 19 21 15 21 -5 0 -9 11 -9
24 0 13 2 24 5 24 19 -1 23 4 10 12 -12 8 -12 10 5 11 l20 0 -20 9 c-11 5 -14
9 -7 9 7 1 10 6 7 11 -3 6 0 10 7 10 9 0 9 3 -2 10 -13 9 -13 10 0 10 13 0 13
1 0 10 -10 6 -11 10 -2 10 6 0 12 5 12 11 0 5 -4 8 -8 5 -5 -3 -9 1 -9 8 0 8
7 12 15 8 11 -4 10 2 -4 24 -11 15 -14 25 -8 21 7 -4 14 0 18 8 3 8 1 17 -4
20 -9 6 -8 31 2 41 4 3 3 17 -2 30 -7 17 -6 24 3 24 7 0 8 3 2 8 -11 8 -18 65
-7 58 4 -2 7 7 7 20 0 13 -4 24 -9 24 -4 0 -5 8 -1 18 9 19 9 46 0 80 -3 13
-2 21 3 18 11 -7 10 37 -2 45 -4 4 -4 15 2 25 6 11 7 27 1 41 -5 13 -4 25 1
28 16 10 11 25 -7 25 -15 0 -16 2 -3 10 8 5 11 10 6 10 -6 0 -5 5 2 12 18 18
14 32 -5 17 -15 -13 -15 -12 -5 7 8 16 8 24 0 32 -9 9 -7 12 8 13 18 0 18 1
-1 9 -11 5 -14 9 -6 9 11 1 11 4 1 16 -11 13 -10 15 6 9 18 -5 18 -5 1 9 -14
11 -15 16 -5 20 10 4 10 6 0 6 -10 1 -10 6 -2 21 9 16 7 22 -6 27 -16 6 -16 7
2 14 17 7 17 8 1 8 -10 1 -15 5 -12 11 3 5 1 18 -5 29 -7 14 -7 22 1 26 7 5 3
14 -10 26 -22 21 -28 35 -11 24 6 -3 10 -1 10 4 0 6 -6 11 -14 11 -18 0 -29
27 -14 36 7 5 5 11 -6 20 -10 7 -15 17 -12 23 4 6 -2 8 -14 6 -23 -4 -26 5 -7
24 10 10 8 11 -7 5 -16 -6 -18 -4 -13 11 6 15 5 16 -8 5 -13 -11 -16 -11 -13
1 2 8 8 17 13 21 6 5 6 8 -2 8 -6 0 -15 -5 -18 -10 -10 -16 -24 -2 -20 19 3
15 -1 18 -17 13 -16 -4 -19 -2 -13 9 7 11 5 11 -10 -1 -11 -9 -16 -10 -11 -2
4 7 1 12 -9 12 -9 0 -14 4 -11 9 3 5 -1 11 -9 15 -8 3 -15 0 -15 -7 -1 -7 -6
-5 -14 5 -10 14 -15 15 -26 5 -9 -9 -11 -9 -6 0 3 6 2 14 -4 18 -5 3 -10 1
-10 -5 0 -7 -6 -8 -19 -1 -14 8 -19 26 -23 76 -7 80 -39 135 -98 165 -33 17
-57 20 -157 19 -65 -1 -901 -43 -1858 -94z"/>
<path d="M5756 13538 c3 -5 10 -6 15 -3 13 9 11 12 -6 12 -8 0 -12 -4 -9 -9z"/>
<path d="M5226 13532 c-3 -5 1 -9 9 -9 8 0 12 4 9 9 -3 4 -7 8 -9 8 -2 0 -6
-4 -9 -8z"/>
<path d="M3707 13459 c7 -7 15 -10 18 -7 3 3 -2 9 -12 12 -14 6 -15 5 -6 -5z"/>
<path d="M11023 13200 c0 -16 4 -27 9 -24 9 6 7 54 -3 54 -3 0 -6 -13 -6 -30z"/>
<path d="M11010 13055 c0 -40 0 -41 -43 -18 -18 9 -36 16 -41 15 -4 -2 -13 1
-20 7 -12 9 -47 13 -111 12 -97 -2 -125 -5 -125 -12 0 -4 -20 -6 -45 -4 -25 1
-45 -2 -45 -7 0 -5 -19 -9 -42 -9 -98 0 -177 -14 -189 -32 -4 -5 -4 -23 -2
-40 3 -18 7 -50 9 -72 10 -98 40 -311 45 -320 3 -5 4 -26 4 -45 -1 -19 1 -39
5 -45 4 -5 6 -27 5 -48 -1 -21 2 -40 7 -43 5 -3 9 -24 8 -47 0 -37 25 -242 29
-242 2 0 9 -76 13 -147 1 -21 5 -38 9 -38 4 0 7 -15 7 -32 0 -18 3 -51 6 -73
21 -149 38 -295 38 -322 0 -18 4 -33 8 -33 4 0 6 -20 5 -45 -2 -25 0 -45 4
-45 4 0 8 -19 9 -42 1 -24 11 -110 22 -193 11 -82 21 -167 21 -187 1 -21 5
-38 9 -38 4 0 5 -20 4 -45 -2 -25 1 -45 5 -45 5 0 8 -21 7 -46 -1 -25 2 -48 6
-50 5 -3 8 -20 8 -37 -1 -51 23 -247 30 -247 4 0 5 -17 3 -37 -1 -21 0 -45 4
-53 6 -16 10 -41 17 -130 2 -30 5 -55 6 -55 3 0 39 -272 44 -325 2 -25 4 -45
6 -45 1 0 3 -18 5 -40 1 -22 4 -47 8 -55 3 -8 6 -28 6 -45 3 -49 16 -155 36
-295 4 -25 7 -62 6 -82 0 -21 3 -38 8 -38 5 0 8 -17 6 -37 -1 -21 0 -42 4 -48
3 -5 7 -23 8 -40 8 -91 35 -322 40 -335 3 -8 7 -33 8 -55 1 -22 3 -40 5 -40 1
0 4 -18 6 -40 2 -22 6 -56 8 -75 3 -19 10 -80 16 -135 7 -55 14 -107 17 -115
5 -14 8 -36 15 -135 2 -22 6 -44 10 -50 3 -5 5 -29 4 -52 -1 -24 2 -43 7 -43
5 0 7 -18 5 -40 -2 -22 0 -41 4 -42 4 -2 10 -25 13 -53 2 -27 7 -66 10 -86 3
-20 8 -58 11 -85 3 -27 7 -62 9 -79 3 -16 7 -50 9 -75 2 -25 5 -45 6 -45 1 0
5 -29 15 -111 3 -29 8 -62 10 -74 2 -12 5 -42 6 -66 2 -25 6 -47 9 -49 3 -2 6
-24 5 -49 0 -25 2 -46 5 -46 3 0 5 -10 6 -22 0 -13 4 -50 8 -83 10 -77 15
-120 21 -170 2 -23 6 -53 9 -67 2 -14 7 -52 11 -84 4 -33 11 -63 14 -69 4 -5
8 -21 9 -35 1 -14 10 -50 20 -80 11 -30 21 -62 23 -70 7 -26 80 -163 102 -192
57 -74 149 -155 205 -179 18 -8 35 -23 38 -34 6 -18 44 -63 44 -51 0 2 14 1
30 -4 17 -5 30 -5 30 -1 0 3 8 7 18 8 21 2 39 7 75 21 15 7 39 15 52 18 14 3
25 10 25 16 0 5 4 6 10 3 13 -8 100 82 100 104 0 10 3 21 7 25 8 7 8 9 22 76
5 25 7 48 5 52 -3 4 0 16 5 26 7 13 7 22 -1 30 -9 9 -9 12 1 12 7 0 10 4 6 9
-3 5 -7 47 -10 93 -6 119 -14 191 -30 268 -7 34 -19 126 -17 133 1 4 -2 7 -6
7 -7 0 -13 31 -15 83 -1 9 -5 17 -9 17 -4 0 -8 9 -8 21 0 11 -9 57 -21 102
-11 45 -23 89 -25 97 -12 51 -36 137 -41 150 -3 8 -8 24 -10 35 -2 11 -6 27
-10 35 -3 8 -6 29 -7 45 -1 17 -4 35 -6 40 -3 6 -5 30 -5 55 0 25 -3 47 -6 50
-3 3 -9 37 -13 75 -4 39 -11 104 -17 145 -5 41 -11 93 -13 115 -2 22 -5 40 -6
40 -1 0 -4 18 -6 40 -1 22 -5 54 -8 70 -3 17 -7 53 -11 80 -3 28 -7 64 -10 80
-2 17 -7 53 -10 80 -8 76 -14 126 -20 167 -9 59 -15 100 -20 143 -2 22 -7 60
-10 85 -3 25 -8 65 -10 90 -3 25 -7 55 -9 67 -3 12 -7 48 -11 80 -3 33 -7 70
-10 84 -8 48 -17 125 -20 171 -1 25 -5 50 -8 55 -4 5 -9 45 -13 88 -3 44 -8
88 -11 100 -3 11 -6 38 -8 60 -2 22 -4 40 -5 40 -1 0 -3 16 -5 35 -5 48 -14
119 -20 155 -2 17 -7 55 -10 85 -4 30 -8 69 -11 85 -5 33 -15 114 -19 160 -1
17 -4 30 -5 30 -1 0 -3 14 -5 30 -2 17 -6 48 -8 70 -3 22 -8 65 -12 95 -4 30
-8 69 -11 85 -2 17 -7 59 -10 95 -4 36 -11 68 -18 72 -8 6 -7 8 2 8 8 0 10 5
6 12 -4 6 -9 28 -10 47 -6 68 -10 97 -17 108 -4 7 -3 15 3 18 7 5 8 11 1 19
-5 6 -12 41 -14 76 -3 36 -7 76 -11 90 -3 14 -8 48 -11 75 -3 28 -8 68 -11 90
-3 22 -7 58 -10 80 -3 22 -7 56 -8 75 -2 19 -5 35 -6 35 -1 0 -3 16 -5 35 -3
43 -15 136 -21 170 -4 25 -16 143 -17 168 0 6 -3 12 -7 12 -4 0 -6 123 -5 273
0 151 -3 278 -8 285 -6 8 -5 12 2 12 7 0 9 5 5 11 -4 6 -8 41 -10 78 -7 159
-24 290 -58 436 -9 41 -62 131 -100 170 -40 42 -45 51 -42 86 2 21 -1 39 -5
39 -5 0 -9 -16 -9 -35z"/>
<path d="M2671 12034 c0 -11 3 -14 6 -6 3 7 2 16 -1 19 -3 4 -6 -2 -5 -13z"/>
<path d="M12175 10904 c-20 -20 -34 -41 -32 -47 2 -7 -1 -19 -8 -27 -7 -8 -23
-35 -36 -60 -13 -25 -30 -53 -38 -62 -8 -10 -10 -18 -5 -18 5 0 4 -4 -2 -8 -9
-6 -65 -112 -70 -132 0 -3 -4 -12 -8 -21 -4 -9 -8 -27 -10 -41 -1 -13 -5 -28
-8 -33 -12 -20 -1 -161 16 -210 19 -54 48 -105 81 -144 35 -41 106 -111 113
-111 4 0 18 -10 32 -23 14 -13 40 -30 58 -38 17 -7 32 -17 32 -21 0 -5 9 -8
19 -8 11 0 21 -4 23 -9 2 -6 37 -24 78 -41 130 -54 150 -57 199 -29 23 12 41
27 41 33 0 5 3 7 6 3 4 -3 12 -1 20 6 7 7 26 21 40 32 41 30 154 144 154 154
0 5 6 16 14 24 18 18 46 84 46 108 0 11 4 19 8 19 9 0 8 79 -2 130 -11 52 -55
138 -93 178 -18 19 -33 38 -33 41 -1 14 -141 115 -214 155 -25 15 -66 37 -91
51 -25 14 -49 25 -53 25 -4 0 -20 6 -37 14 -16 8 -49 20 -72 27 -37 10 -43 16
-43 39 0 30 -21 53 -62 69 -25 9 -32 7 -63 -25z"/>
<path d="M19369 10515 c-4 -3 -19 -8 -35 -10 -36 -6 -91 -16 -123 -22 -14 -2
-29 -7 -35 -10 -5 -4 -19 -8 -30 -9 -34 -4 -47 -8 -141 -44 -50 -18 -97 -39
-106 -47 -8 -7 -22 -13 -30 -13 -8 0 -25 -9 -39 -20 -14 -11 -28 -20 -32 -20
-20 0 -254 -164 -335 -233 -102 -88 -383 -379 -387 -402 -2 -5 -10 -28 -20
-50 -10 -22 -19 -47 -21 -55 -2 -8 -4 -16 -5 -17 -2 -2 -3 -6 -5 -10 -1 -5 -4
-15 -7 -23 -13 -37 -27 -87 -32 -110 -3 -14 -10 -43 -15 -65 -6 -22 -10 -41
-11 -42 0 -2 0 -4 -1 -5 -1 -2 -2 -14 -4 -28 -5 -46 -15 -102 -21 -111 -3 -5
0 -9 6 -9 6 0 8 -5 3 -12 -4 -7 -9 -20 -10 -28 -5 -24 -4 -302 1 -335 3 -16 7
-57 11 -90 3 -33 8 -68 11 -77 3 -9 7 -27 9 -40 11 -55 28 -126 42 -168 8 -25
16 -49 17 -55 1 -5 5 -16 9 -22 5 -7 6 -13 3 -13 -11 0 112 -263 125 -268 5
-2 9 -9 9 -16 0 -7 9 -22 20 -34 11 -12 20 -25 20 -29 -3 -25 197 -251 276
-313 78 -61 238 -158 274 -166 3 0 17 -6 32 -12 49 -20 151 -47 216 -57 12 -2
53 -8 90 -14 37 -6 85 -13 107 -16 22 -3 61 -9 87 -14 25 -4 58 -7 72 -6 14 0
26 -2 26 -5 0 -3 10 -7 23 -7 107 -6 166 -11 173 -15 8 -4 226 -2 322 4 23 1
42 6 42 10 0 5 12 6 26 4 14 -3 33 -1 42 4 10 5 51 16 92 25 41 9 80 21 87 27
7 6 13 8 13 4 0 -5 49 13 130 47 14 5 30 11 35 11 6 1 24 9 41 18 17 10 34 14
38 11 3 -4 6 -1 6 5 0 7 4 12 9 12 5 0 30 10 57 22 27 12 52 21 57 20 4 -1 7
2 7 8 0 5 6 10 13 10 6 1 41 15 76 33 63 31 66 34 119 132 l54 100 4 107 4
108 -49 24 c-27 14 -51 22 -55 19 -3 -4 -6 -1 -6 6 0 7 -4 9 -10 6 -5 -3 -10
-2 -10 3 0 6 -15 12 -32 15 -18 3 -44 7 -58 10 -57 13 -160 10 -250 -8 -39 -7
-108 -18 -135 -21 -16 -1 -30 -3 -30 -4 0 -2 -13 -4 -110 -14 -33 -4 -71 -9
-85 -11 -27 -5 -137 -14 -242 -20 -37 -2 -73 -7 -79 -11 -8 -4 -9 -3 -5 4 5 9
0 10 -16 4 -27 -9 -198 -8 -222 1 -11 5 -15 3 -10 -5 5 -7 3 -8 -6 -3 -7 4
-32 9 -54 11 -111 8 -183 19 -216 31 -21 8 -43 14 -57 15 -7 1 -13 5 -13 10 0
4 -8 8 -18 8 -22 0 -107 59 -128 88 -7 11 -16 36 -19 55 -5 27 -2 36 12 40 10
4 45 16 78 27 33 12 74 23 90 26 17 3 35 10 41 15 7 5 16 9 20 8 5 -1 16 0 24
4 21 8 122 37 140 41 8 2 23 6 32 10 9 4 22 9 30 10 7 1 47 13 88 25 41 13 80
24 85 25 6 1 16 5 23 9 6 5 12 5 12 1 0 -3 6 -2 13 3 6 6 48 21 92 34 44 12
83 27 86 32 3 5 8 8 10 7 11 -4 163 53 171 64 4 6 8 7 8 3 0 -4 10 -2 23 5 12
7 24 13 27 13 4 1 36 15 110 49 14 6 27 13 30 16 3 3 29 16 58 29 28 14 52 28
52 32 0 4 18 14 40 23 22 9 40 20 40 26 0 5 7 10 15 10 8 0 15 4 15 8 0 4 14
16 31 26 32 19 133 116 182 175 98 118 145 329 107 481 -6 25 -13 56 -16 68
-2 13 -14 45 -25 70 -12 26 -26 58 -32 72 -6 14 -18 33 -26 43 -8 9 -10 17 -5
17 5 0 4 4 -1 8 -6 4 -23 28 -38 54 -15 26 -33 53 -40 60 -6 7 -32 40 -57 72
-53 70 -56 74 -180 201 -55 57 -112 105 -135 115 -22 10 -70 32 -108 49 -37
17 -72 31 -77 31 -6 0 -10 4 -10 10 0 5 -6 7 -13 4 -7 -2 -30 2 -50 11 -20 8
-37 12 -37 9 0 -4 -6 -2 -12 3 -15 12 -177 45 -225 46 -18 1 -33 4 -33 7 0 7
-204 5 -217 -3 -6 -4 -13 -2 -15 4 -2 5 -6 8 -9 4z m578 -724 c21 -2 77 -71
89 -110 18 -63 2 -120 -58 -209 -33 -48 -118 -135 -181 -184 -23 -18 -48 -37
-55 -43 -7 -5 -19 -16 -27 -22 -7 -7 -16 -13 -20 -13 -6 0 -66 -40 -75 -51 -3
-3 -41 -25 -85 -50 -44 -24 -89 -49 -100 -56 -11 -7 -29 -16 -40 -21 -60 -28
-163 -75 -180 -82 -11 -5 -36 -16 -55 -24 -61 -27 -182 -66 -190 -61 -5 3 -10
1 -12 -4 -3 -8 -31 -15 -103 -26 -11 -2 -20 -4 -20 -5 0 -1 -20 -3 -43 -4 -37
-2 -47 1 -63 23 -10 14 -19 28 -18 31 0 3 -6 18 -14 34 -52 99 78 402 238 559
78 76 216 173 228 160 4 -3 7 -2 7 4 0 18 214 103 261 103 10 0 20 4 24 9 3 6
14 8 25 6 11 -2 20 0 20 4 0 4 10 7 23 6 12 -1 26 0 31 3 5 3 23 7 40 8 132
11 181 15 182 17 2 2 147 0 171 -2z"/>
<path d="M16167 9814 c-57 -7 -115 -21 -138 -33 -21 -11 -39 -17 -39 -13 0 4
-4 2 -8 -3 -4 -6 -20 -19 -35 -28 -60 -39 -219 -191 -314 -302 -50 -58 -223
-281 -253 -325 -8 -13 -24 -35 -35 -49 -12 -14 -27 -36 -35 -47 -8 -12 -37
-55 -65 -95 -27 -41 -53 -76 -56 -79 -4 -3 -26 -33 -50 -66 -137 -191 -295
-391 -301 -381 -4 6 -10 45 -14 87 -3 41 -9 79 -12 85 -3 5 -7 23 -8 40 -1 16
-2 30 -4 30 -1 0 -4 9 -5 20 -6 43 -52 243 -69 300 -1 6 -8 30 -15 55 -15 51
-39 128 -48 150 -4 8 -7 17 -8 20 -1 3 -6 16 -12 30 -6 14 -19 44 -28 68 -9
23 -22 42 -28 42 -6 0 -8 3 -4 6 8 9 -63 112 -109 158 -32 32 -83 67 -106 72
-5 1 -9 2 -10 4 -16 12 -92 15 -158 6 -30 -3 -73 -9 -95 -11 -148 -18 -150
-19 -148 -45 2 -32 11 -88 19 -120 3 -14 8 -36 10 -50 3 -27 7 -45 28 -160 14
-74 24 -130 32 -180 2 -14 11 -63 19 -110 9 -47 18 -101 21 -120 6 -43 12 -75
14 -75 2 0 11 -65 13 -97 1 -16 6 -28 10 -28 5 0 6 -4 3 -8 -3 -4 -1 -26 4
-48 5 -21 11 -59 14 -84 6 -43 12 -79 16 -90 1 -3 2 -8 1 -12 0 -6 7 -53 25
-148 4 -19 8 -48 9 -65 2 -16 4 -30 5 -30 2 0 6 -24 14 -70 2 -16 5 -30 6 -30
0 0 3 -22 6 -50 4 -48 11 -90 14 -90 1 0 3 -18 6 -40 2 -22 7 -53 10 -70 2
-16 7 -44 9 -62 5 -41 15 -111 20 -144 9 -49 120 -333 166 -420 10 -20 16 -39
12 -43 -3 -3 -1 -6 5 -6 6 0 14 -10 18 -22 4 -13 18 -40 31 -60 13 -21 20 -38
16 -38 -5 0 -3 -4 3 -8 5 -4 21 -25 34 -47 13 -22 30 -44 37 -48 7 -4 13 -13
13 -18 0 -6 27 -38 60 -71 56 -58 61 -60 78 -45 16 15 84 48 107 53 6 1 31 10
55 21 25 11 70 30 100 43 47 20 59 31 78 70 12 25 26 52 31 60 5 8 19 35 32
60 13 25 42 81 66 125 23 44 57 109 75 145 18 36 36 67 41 68 4 2 7 7 7 12 0
4 36 72 79 150 44 78 86 155 93 171 7 16 16 29 20 29 5 0 8 6 8 14 0 8 3 16 8
18 4 2 18 23 31 48 33 61 195 332 240 400 20 30 42 68 50 83 8 15 18 27 23 27
4 0 8 4 8 10 0 11 208 320 230 340 3 3 25 31 49 64 24 32 50 66 58 75 8 9 27
32 43 51 27 33 29 34 57 20 47 -24 174 -160 243 -260 36 -52 64 -98 62 -102
-1 -5 3 -8 8 -8 6 0 10 -4 10 -10 0 -5 17 -38 38 -72 38 -64 133 -253 172
-343 12 -27 33 -74 46 -103 13 -29 24 -54 24 -56 0 -2 8 -21 17 -42 9 -22 17
-41 18 -44 1 -3 9 -22 18 -44 9 -21 17 -43 17 -48 0 -6 6 -22 14 -36 19 -35
133 -359 160 -457 2 -5 6 -17 9 -25 5 -14 40 -128 42 -140 0 -3 9 -28 18 -55
l17 -51 43 2 c23 2 42 3 42 4 0 1 9 3 20 5 56 10 125 29 125 35 0 4 6 7 13 8
20 1 142 39 187 59 8 3 20 7 25 8 6 0 19 5 30 9 11 4 32 13 48 18 26 10 27 13
21 57 -13 96 -12 90 -48 221 -27 96 -33 116 -40 148 -2 9 -9 30 -15 45 -6 16
-9 32 -6 37 3 5 1 11 -4 14 -4 3 -12 20 -16 38 -9 37 -12 47 -15 51 -1 1 -3 9
-5 17 -11 51 -120 375 -128 378 -4 2 -5 7 -3 11 3 4 -15 61 -40 127 -24 65
-45 126 -47 134 -1 8 -4 17 -8 20 -3 3 -13 28 -23 55 -21 58 -35 91 -66 160
-13 28 -23 56 -23 63 0 6 -4 12 -9 12 -4 0 -7 3 -6 8 2 6 -76 176 -115 252
-37 71 -72 136 -77 140 -3 3 -16 25 -29 50 -23 44 -167 260 -180 270 -3 3 -31
34 -61 70 -30 35 -66 74 -80 86 -14 12 -36 32 -50 44 -75 67 -230 163 -230
143 0 -5 -4 -2 -9 5 -4 7 -14 15 -22 16 -8 1 -32 8 -54 14 -22 6 -65 14 -95
18 -30 3 -57 7 -60 9 -3 1 -49 -4 -103 -11z"/>
<path d="M12807 9314 c-2 -2 -12 -5 -23 -7 -10 -2 -26 -7 -34 -10 -8 -4 -78
-31 -155 -60 l-140 -53 2 -35 c1 -19 4 -45 8 -59 3 -14 7 -38 10 -55 2 -16 6
-39 8 -50 3 -11 10 -51 16 -90 17 -107 19 -120 21 -120 1 0 4 -16 6 -35 9 -66
13 -85 14 -85 1 0 3 -11 4 -25 2 -14 6 -37 9 -51 4 -14 9 -44 12 -65 5 -36 17
-98 30 -169 4 -16 7 -41 8 -55 1 -14 5 -29 8 -35 3 -5 5 -23 5 -40 -1 -16 2
-32 6 -35 4 -3 9 -29 12 -57 3 -28 7 -61 10 -74 11 -45 20 -96 30 -169 2 -14
5 -25 6 -25 3 0 13 -79 14 -107 1 -16 4 -28 7 -28 4 0 9 -21 12 -47 3 -27 7
-57 10 -68 3 -11 8 -42 12 -70 4 -27 9 -63 11 -80 3 -16 6 -44 8 -61 2 -17 6
-40 10 -51 4 -12 9 -34 11 -49 11 -69 18 -100 26 -116 5 -10 8 -18 5 -18 -6 0
50 -185 65 -212 7 -13 11 -23 10 -23 -15 0 87 -201 137 -270 42 -57 123 -140
167 -171 48 -33 132 -74 139 -67 3 4 6 2 6 -4 0 -5 6 -10 13 -10 6 -1 27 -3
45 -6 18 -2 35 -1 37 3 3 5 13 7 23 6 23 -4 76 19 108 47 43 37 101 173 119
277 10 62 18 125 18 145 -1 22 -11 110 -13 110 -1 0 -3 18 -5 40 -2 22 -8 69
-14 105 -6 36 -13 85 -16 110 -3 25 -8 59 -11 75 -3 17 -7 39 -9 50 -10 75
-16 113 -20 135 -3 14 -7 40 -10 58 -3 17 -7 44 -9 60 -3 15 -8 47 -11 72 -8
50 -13 75 -15 75 -1 0 -3 9 -5 20 -1 11 -5 31 -8 45 -3 14 -8 43 -12 65 -3 22
-18 92 -31 156 -13 63 -26 124 -28 135 -3 10 -9 39 -16 64 -6 25 -12 54 -14
65 -2 11 -4 20 -5 20 -2 0 -4 11 -7 25 -2 14 -7 32 -11 40 -3 8 -8 24 -10 35
-2 11 -13 51 -25 90 -11 38 -21 75 -23 80 -1 6 -4 17 -7 25 -18 47 -73 206
-73 210 -1 3 -20 45 -43 94 -52 109 -118 212 -169 263 -42 43 -113 98 -113 87
0 -3 -6 -1 -14 5 -8 7 -25 14 -38 16 -41 7 -97 12 -101 9z"/>
<path d="M8860 8891 c0 -5 -14 -7 -31 -4 -16 2 -37 -1 -45 -8 -8 -6 -14 -8
-14 -5 0 4 -13 -2 -29 -13 -16 -12 -34 -21 -40 -21 -6 0 -18 -11 -27 -25 -9
-14 -21 -25 -26 -25 -5 0 -52 -44 -104 -97 -52 -54 -116 -121 -144 -149 -27
-29 -50 -56 -50 -62 0 -6 -13 -22 -30 -35 -16 -14 -30 -28 -30 -32 0 -6 -116
-145 -155 -185 -14 -14 -25 -30 -25 -36 0 -6 -11 -20 -25 -30 -14 -10 -25 -23
-25 -28 0 -5 -11 -19 -24 -31 -14 -13 -22 -25 -19 -28 3 -3 -4 -12 -16 -19
-12 -7 -21 -16 -21 -21 0 -4 -21 -34 -47 -66 -27 -32 -59 -73 -73 -91 -14 -18
-33 -41 -42 -51 -10 -11 -16 -19 -13 -19 3 0 -2 -8 -11 -17 -8 -10 -51 -65
-94 -123 -43 -58 -88 -115 -99 -128 -12 -12 -21 -27 -21 -32 0 -6 -4 -10 -9
-10 -5 0 -13 -9 -16 -20 -11 -35 -24 -22 -20 20 2 22 0 40 -4 40 -4 0 -8 17
-9 38 -1 40 -30 208 -39 232 -4 8 -5 19 -4 24 1 5 -1 16 -5 25 -4 9 -8 23 -9
31 -1 8 -4 22 -7 30 -3 8 -16 56 -28 105 -13 50 -25 95 -29 100 -3 6 -6 17 -7
25 0 8 -8 31 -17 51 -8 19 -19 47 -22 62 -4 15 -11 27 -17 27 -5 0 -7 4 -4 9
8 13 -49 126 -95 188 -68 92 -129 139 -204 158 -35 8 -108 10 -121 3 -5 -3
-67 -11 -137 -18 l-128 -14 6 -35 c23 -149 37 -228 42 -241 4 -8 6 -25 6 -37
0 -13 3 -23 6 -23 4 0 8 -10 9 -22 1 -29 37 -222 48 -263 5 -16 7 -36 6 -42
-2 -7 1 -13 6 -13 4 0 8 -10 9 -22 1 -13 4 -34 7 -48 3 -14 15 -65 26 -115 11
-49 22 -99 25 -110 3 -11 8 -31 10 -45 12 -69 47 -217 54 -230 4 -8 7 -23 5
-32 -1 -10 2 -18 7 -18 6 0 9 -6 8 -12 -1 -7 1 -24 4 -38 17 -65 59 -237 63
-255 6 -33 40 -159 47 -175 4 -8 20 -67 36 -130 17 -63 37 -137 45 -164 8 -27
13 -53 10 -58 -3 -4 -1 -8 4 -8 6 0 13 -16 16 -35 4 -20 16 -64 27 -98 11 -34
22 -70 24 -80 2 -9 6 -21 9 -25 3 -5 7 -19 10 -33 2 -13 23 -76 46 -139 23
-63 42 -121 43 -127 0 -7 3 -13 7 -13 3 0 12 -15 18 -34 7 -19 34 -58 59 -85
l47 -51 43 48 c23 26 46 52 50 57 23 30 119 141 128 147 5 4 7 8 3 8 -4 0 9
17 27 38 19 20 35 40 35 43 0 4 13 22 30 40 16 19 30 37 30 40 0 3 11 19 25
35 44 50 50 58 47 63 -2 2 0 7 5 10 5 3 25 29 44 56 18 28 36 52 39 55 3 3 19
25 35 50 16 25 32 47 35 50 3 3 10 12 15 21 10 17 54 84 177 272 37 56 71 107
77 113 5 7 7 15 4 18 -4 3 -1 6 5 6 7 0 12 6 12 13 0 7 8 22 18 33 10 10 18
23 19 28 0 4 5 15 11 25 40 57 61 91 57 91 -2 0 18 36 45 81 28 44 50 82 50
85 0 2 11 22 25 44 14 22 22 40 18 40 -5 0 -2 4 4 8 7 4 23 26 35 49 79 140
135 233 158 260 5 7 10 16 10 21 0 5 6 15 14 21 8 7 22 27 31 46 9 19 20 35
25 35 5 0 11 9 15 19 3 10 28 42 56 70 59 60 94 66 154 26 41 -29 213 -205
199 -205 -2 0 13 -24 35 -54 22 -29 37 -56 34 -60 -4 -3 -1 -6 5 -6 7 0 18
-16 26 -35 8 -19 20 -35 26 -35 7 0 10 -6 8 -12 -3 -7 4 -22 14 -33 10 -11 21
-30 24 -42 4 -13 10 -23 16 -23 5 0 6 -4 3 -10 -3 -5 -2 -10 2 -10 5 0 19 -27
32 -60 13 -33 28 -60 33 -60 5 0 6 -4 3 -10 -3 -5 -1 -10 4 -10 6 0 10 -3 9
-7 -1 -5 8 -27 20 -50 12 -23 22 -49 22 -58 0 -8 5 -15 11 -15 5 0 7 -4 4 -10
-3 -5 -1 -10 5 -10 6 0 9 -4 5 -9 -3 -5 -1 -12 4 -15 5 -4 15 -23 22 -44 7
-20 19 -53 27 -72 9 -19 15 -38 14 -42 -1 -5 2 -8 8 -8 5 0 10 -7 10 -15 0
-18 32 -88 45 -97 6 -4 6 -8 1 -8 -5 0 -2 -7 5 -17 8 -9 13 -18 11 -20 -2 -2
8 -35 23 -73 15 -39 28 -76 29 -83 1 -6 7 -21 12 -32 6 -11 17 -41 24 -68 7
-26 16 -50 21 -53 4 -2 6 -11 2 -19 -3 -8 1 -15 8 -15 7 0 10 -3 6 -6 -3 -3 3
-29 13 -57 11 -29 38 -112 60 -185 l41 -133 42 6 c23 3 56 7 72 9 17 2 31 5
33 6 1 1 5 3 10 4 4 1 54 17 112 36 58 18 108 33 113 32 4 -1 7 3 7 9 0 5 8 9
18 8 9 -1 35 6 57 16 22 10 44 18 48 17 21 -6 47 20 42 41 -2 12 -7 42 -10 67
-6 46 -16 90 -33 147 -6 17 -8 34 -4 37 3 3 -1 6 -8 6 -7 0 -11 2 -8 5 3 3 -8
52 -24 108 -38 133 -34 118 -64 232 -15 55 -31 102 -36 103 -4 2 -5 8 -2 13 3
6 0 16 -6 24 -7 8 -10 21 -7 30 4 8 2 17 -2 19 -5 3 -16 34 -26 68 -9 35 -22
69 -27 76 -6 6 -7 12 -3 12 4 0 3 6 -2 13 -5 6 -18 40 -29 75 -10 34 -23 62
-27 62 -5 0 -5 5 -2 10 4 6 1 18 -7 27 -7 9 -11 17 -10 17 2 1 -1 12 -6 26
-21 53 -43 120 -42 126 1 4 -3 10 -8 13 -5 3 -19 35 -31 71 -13 36 -27 71 -33
78 -6 6 -7 12 -3 12 4 0 2 6 -4 13 -6 8 -8 17 -4 20 3 4 1 7 -5 7 -6 0 -16 17
-23 38 -6 20 -24 62 -40 92 -25 49 -60 127 -64 140 0 3 -16 32 -35 65 -19 33
-35 62 -36 65 -1 7 -35 66 -61 106 -12 19 -20 34 -17 34 2 0 -4 10 -16 22 -11
12 -20 26 -20 31 0 11 -57 87 -79 105 -8 6 -11 12 -7 12 9 0 -92 123 -159 193
-25 26 -50 47 -55 47 -5 0 -17 11 -28 25 -11 14 -22 25 -25 25 -5 0 -101 61
-122 78 -5 4 -32 16 -60 26 -27 10 -57 20 -65 23 -8 4 -18 7 -22 8 -5 2 -10 4
-13 5 -3 1 -14 3 -24 4 -11 0 -23 4 -27 9 -11 10 -204 9 -204 -2z"/>
<path d="M4175 8489 c-38 -5 -79 -10 -90 -10 -10 0 -25 -5 -32 -10 -6 -6 -17
-8 -22 -5 -5 4 -13 2 -16 -4 -4 -6 -14 -10 -23 -9 -10 1 -34 -5 -54 -15 -21
-9 -42 -16 -48 -16 -5 0 -10 -5 -10 -12 0 -6 -3 -9 -6 -5 -4 3 -33 -12 -65
-33 -32 -22 -61 -40 -64 -40 -3 0 -11 -4 -18 -10 -7 -5 -51 -38 -98 -72 -127
-93 -319 -265 -319 -286 0 -5 -8 -16 -17 -23 -9 -8 -43 -50 -75 -94 -32 -44
-62 -85 -67 -91 -6 -7 -7 -15 -4 -18 4 -3 1 -6 -5 -6 -7 0 -11 -3 -10 -7 1 -5
-6 -20 -16 -35 -18 -27 -97 -203 -100 -223 -1 -5 -5 -16 -9 -22 -5 -7 -5 -17
-2 -23 3 -5 1 -10 -5 -10 -6 0 -10 -6 -9 -12 1 -7 -1 -20 -4 -28 -12 -28 -36
-139 -41 -185 -2 -16 -4 -32 -6 -35 -1 -3 -3 -25 -4 -50 -1 -25 -5 -50 -9 -56
-7 -13 -1 -248 8 -299 6 -30 10 -63 19 -145 3 -25 7 -58 10 -75 28 -164 38
-220 41 -225 2 -4 7 -21 10 -38 3 -18 17 -69 32 -114 14 -46 26 -89 26 -95 0
-7 4 -13 8 -13 4 0 11 -10 14 -22 24 -81 125 -253 195 -332 94 -106 208 -199
273 -222 9 -3 17 -11 17 -16 0 -6 7 -8 15 -4 8 3 15 2 15 -3 0 -9 120 -57 133
-53 4 1 7 -2 7 -8 0 -6 3 -9 8 -8 4 1 41 -6 82 -16 41 -9 95 -19 120 -22 25
-2 61 -7 80 -9 96 -13 322 -2 425 20 39 8 73 15 77 16 4 0 26 6 48 14 22 8 41
14 43 14 4 -1 120 32 162 47 174 59 405 164 531 242 33 20 75 46 94 57 18 11
40 28 49 38 8 9 21 17 27 17 7 0 14 3 16 8 2 4 23 23 48 42 111 86 272 259
345 370 17 25 32 47 35 50 11 10 48 65 50 75 5 18 25 60 31 65 10 8 69 141 69
156 0 8 5 14 10 14 6 0 9 3 8 8 -2 10 43 155 53 168 5 6 6 13 4 16 -3 3 1 25
9 49 15 44 33 143 42 229 10 85 10 295 1 307 -5 7 -5 18 0 25 8 14 12 39 15
101 1 20 6 37 11 37 6 0 7 18 3 43 -4 23 -9 59 -11 79 -7 51 -9 62 -16 68 -3
3 -13 27 -23 54 -11 27 -33 70 -50 95 -50 76 -234 251 -263 251 -7 0 -13 5
-13 11 0 5 -4 7 -10 4 -5 -3 -10 -1 -10 5 0 6 -8 14 -17 17 -10 4 -39 19 -65
35 -27 15 -48 24 -48 20 0 -4 -4 -2 -8 3 -7 10 -104 59 -110 55 -2 -1 -13 5
-26 13 -12 8 -46 22 -76 31 -29 9 -59 21 -66 27 -8 6 -14 8 -14 4 0 -4 -7 -2
-15 5 -8 6 -19 9 -25 5 -5 -3 -10 -2 -10 3 0 5 -27 15 -60 22 -33 7 -60 16
-60 21 0 5 -7 6 -15 3 -8 -4 -21 -2 -28 4 -6 5 -20 8 -29 7 -10 -2 -18 1 -18
5 0 5 -8 9 -17 9 -21 0 -181 31 -203 39 -8 3 -21 4 -29 3 -7 -1 -20 1 -30 5
-9 4 -29 9 -46 10 -16 2 -46 6 -65 9 -127 20 -487 28 -595 14z m818 -685 c3
-3 34 -8 69 -9 85 -5 108 -8 108 -16 0 -3 8 -6 18 -6 21 1 129 -31 157 -46 11
-6 25 -11 30 -12 6 0 29 -12 52 -28 24 -15 44 -27 47 -27 2 0 21 -17 41 -37
36 -36 104 -143 90 -143 -3 0 -3 -6 2 -12 10 -18 11 -208 0 -208 -4 0 -7 -8
-6 -17 4 -31 -38 -172 -54 -184 -5 -3 -8 -8 -7 -10 4 -7 -44 -104 -54 -111 -6
-4 -8 -8 -3 -8 4 0 -9 -22 -28 -50 -19 -27 -33 -50 -30 -50 3 0 0 -7 -7 -15
-21 -26 -31 -38 -73 -90 -46 -57 -184 -196 -240 -240 -20 -16 -47 -38 -59 -47
-11 -10 -25 -21 -31 -26 -30 -23 -147 -102 -152 -102 -4 0 -14 -6 -22 -14 -9
-8 -50 -31 -91 -52 -41 -21 -76 -42 -78 -46 -2 -5 -8 -8 -14 -8 -6 0 -38 -12
-72 -26 -105 -46 -120 -51 -161 -64 -22 -6 -47 -14 -55 -17 -8 -4 -18 -6 -22
-5 -4 1 -19 -3 -33 -8 -14 -5 -36 -12 -48 -14 -12 -3 -33 -7 -46 -10 -88 -19
-208 -26 -268 -15 -116 22 -207 107 -219 205 -33 267 -36 485 -10 677 11 75
23 137 28 137 5 0 6 5 3 10 -4 6 -2 17 4 24 7 8 10 18 9 22 -4 13 44 138 56
146 6 4 8 8 4 8 -4 0 6 23 22 50 17 28 30 55 30 59 0 5 7 12 16 15 9 4 14 9
10 13 -3 3 3 12 14 20 11 8 20 19 20 24 0 13 144 159 157 159 5 0 18 8 29 18
25 23 112 68 147 76 15 3 27 11 27 16 0 5 9 7 20 5 11 -2 20 -1 20 3 0 8 141
45 215 57 6 1 12 3 15 5 5 3 12 4 130 19 79 10 284 13 293 5z"/>
<path d="M2405 7210 c3 -5 8 -10 11 -10 2 0 4 5 4 10 0 6 -5 10 -11 10 -5 0
-7 -4 -4 -10z"/>
</g>
</svg>
