<?xml version="1.0" encoding="UTF-8" standalone="no"?>
<!DOCTYPE svg PUBLIC "-//W3C//DTD SVG 1.1//EN" "http://www.w3.org/Graphics/SVG/1.1/DTD/svg11.dtd">
<svg width="100%" height="100%" viewBox="0 0 2481 2481" version="1.1" xmlns="http://www.w3.org/2000/svg" xmlns:xlink="http://www.w3.org/1999/xlink" xml:space="preserve" xmlns:serif="http://www.serif.com/" style="fill-rule:evenodd;clip-rule:evenodd;stroke-linejoin:round;stroke-miterlimit:2;">
    <g transform="matrix(9.13871,0,0,11.3971,-6454.01,-3211.4)">
        <path d="M977.646,310.074C977.646,294.46 961.837,281.783 942.364,281.783L741.509,281.783C722.037,281.783 706.228,294.46 706.228,310.074L706.228,471.112C706.228,486.726 722.037,499.403 741.509,499.403L942.364,499.403C961.837,499.403 977.646,486.726 977.646,471.112L977.646,310.074Z" style="fill:rgb(39,91,178);"/>
        <clipPath id="_clip1">
            <path d="M977.646,310.074C977.646,294.46 961.837,281.783 942.364,281.783L741.509,281.783C722.037,281.783 706.228,294.46 706.228,310.074L706.228,471.112C706.228,486.726 722.037,499.403 741.509,499.403L942.364,499.403C961.837,499.403 977.646,486.726 977.646,471.112L977.646,310.074Z"/>
        </clipPath>
        <g clip-path="url(#_clip1)">
            <g transform="matrix(0.132182,0,0,0.10599,606.503,117.448)">
                <g transform="matrix(7.56533,0,0,9.43486,-4588.39,-1108.11)">
                    <rect x="706.228" y="281.783" width="271.418" height="217.619" style="fill:rgb(39,91,178);"/>
                </g>
                <g transform="matrix(4.16667,0,0,4.16667,-2219.4,536.534)">
                    <g transform="matrix(1.15027,-0.702004,0.680504,1.11504,1136.24,418.954)">
                        <path d="M-1.474,-169.981C-0.66,-169.981 -0,-170.662 0,-171.502C0,-178.92 0,-211.247 0,-218.665C-0,-219.068 -0.155,-219.455 -0.432,-219.741C-0.708,-220.026 -1.083,-220.186 -1.474,-220.186L-202.888,-220.186C-203.702,-220.186 -204.362,-219.505 -204.362,-218.665L-204.362,48.684C-204.362,49.087 -204.207,49.474 -203.93,49.76C-203.654,50.045 -203.279,50.205 -202.888,50.205L-143.272,50.205C-142.881,50.205 -142.506,50.045 -142.23,49.76C-141.953,49.474 -141.798,49.087 -141.798,48.684L-141.798,-46.844C-141.798,-47.638 -141.174,-48.281 -140.405,-48.281C-127.644,-48.281 -31.218,-48.281 -18.107,-48.281C-17.716,-48.281 -17.341,-48.441 -17.065,-48.726C-16.788,-49.012 -16.633,-49.399 -16.633,-49.802L-16.633,-97.003C-16.633,-97.406 -16.788,-97.793 -17.065,-98.079C-17.341,-98.364 -17.716,-98.524 -18.107,-98.524L-140.405,-98.524C-140.774,-98.524 -141.129,-98.675 -141.39,-98.945C-141.651,-99.214 -141.798,-99.58 -141.798,-99.961C-141.798,-109.132 -141.798,-159.373 -141.798,-168.544C-141.798,-168.925 -141.651,-169.291 -141.39,-169.56C-141.129,-169.83 -140.774,-169.981 -140.405,-169.981C-126.663,-169.981 -15.594,-169.981 -1.474,-169.981Z" style="fill:white;fill-rule:nonzero;"/>
                    </g>
                    <g transform="matrix(9.21517,0,0,9.21517,-6507.82,-3304.38)">
                        <g transform="matrix(7.59617,0,0,7.59617,787.527,434.269)">
                            <path d="M0.043,-0.354C0.043,-0.426 0.054,-0.488 0.076,-0.537C0.092,-0.574 0.115,-0.606 0.143,-0.635C0.171,-0.664 0.202,-0.686 0.235,-0.7C0.28,-0.719 0.331,-0.728 0.39,-0.728C0.495,-0.728 0.58,-0.695 0.643,-0.63C0.706,-0.564 0.738,-0.473 0.738,-0.357C0.738,-0.241 0.706,-0.151 0.644,-0.086C0.581,-0.02 0.497,0.012 0.392,0.012C0.285,0.012 0.201,-0.02 0.138,-0.085C0.075,-0.15 0.043,-0.24 0.043,-0.354ZM0.192,-0.358C0.192,-0.277 0.211,-0.216 0.249,-0.174C0.286,-0.132 0.333,-0.111 0.391,-0.111C0.449,-0.111 0.496,-0.132 0.533,-0.174C0.57,-0.215 0.588,-0.277 0.588,-0.36C0.588,-0.442 0.57,-0.504 0.534,-0.544C0.498,-0.584 0.451,-0.604 0.391,-0.604C0.332,-0.604 0.284,-0.584 0.247,-0.543C0.211,-0.502 0.192,-0.441 0.192,-0.358Z" style="fill:white;fill-rule:nonzero;"/>
                        </g>
                        <g transform="matrix(7.59617,0,0,7.59617,796.854,434.269)">
                            <path d="M0.074,-0L0.074,-0.716L0.215,-0.716L0.508,-0.238L0.508,-0.716L0.642,-0.716L0.642,-0L0.497,-0L0.208,-0.467L0.208,-0L0.074,-0Z" style="fill:white;fill-rule:nonzero;"/>
                        </g>
                        <g transform="matrix(7.59617,0,0,7.59617,805.758,434.269)">
                            <path d="M0.077,-0L0.077,-0.71L0.221,-0.71L0.221,-0.121L0.581,-0.121L0.581,-0L0.077,-0Z" style="fill:white;fill-rule:nonzero;"/>
                        </g>
                        <g transform="matrix(7.59617,0,0,7.59617,813.817,434.269)">
                            <rect x="0.068" y="-0.716" width="0.145" height="0.716" style="fill:white;fill-rule:nonzero;"/>
                        </g>
                        <g transform="matrix(7.59617,0,0,7.59617,819.345,434.269)">
                            <path d="M0.074,-0L0.074,-0.716L0.215,-0.716L0.508,-0.238L0.508,-0.716L0.642,-0.716L0.642,-0L0.497,-0L0.208,-0.467L0.208,-0L0.074,-0Z" style="fill:white;fill-rule:nonzero;"/>
                        </g>
                        <g transform="matrix(7.59617,0,0,7.59617,828.249,434.269)">
                            <path d="M0.073,-0L0.073,-0.716L0.604,-0.716L0.604,-0.595L0.217,-0.595L0.217,-0.436L0.577,-0.436L0.577,-0.315L0.217,-0.315L0.217,-0.121L0.617,-0.121L0.617,-0L0.073,-0Z" style="fill:white;fill-rule:nonzero;"/>
                        </g>
                    </g>
                </g>
                <g transform="matrix(-1.70887,0.110823,-0.110823,-1.70887,4775.59,13681.2)">
                    <g transform="matrix(0.0165323,0.0412898,0.0412898,-0.0165323,360.626,6330.43)">
                        <path d="M6035,12789C4145,12677 2414,11748 1278,10235C191,8788 -231,6922 125,5145C530,3131 1874,1434 3740,580C5612,-276 7791,-177 9577,846C11183,1766 12311,3331 12675,5145C12978,6656 12721,8239 11954,9577C10983,11273 9289,12435 7365,12725C6921,12792 6457,12814 6035,12789ZM6920,12215C7728,12137 8459,11919 9145,11552C9668,11273 10098,10953 10526,10526C10753,10298 10887,10145 11066,9908C11624,9167 11997,8303 12154,7385C12215,7025 12234,6794 12234,6400C12234,6006 12215,5775 12154,5415C11978,4384 11546,3457 10854,2625C10715,2458 10342,2085 10175,1946C9343,1254 8416,822 7385,646C7022,584 6797,566 6400,566C6003,566 5778,584 5415,646C4384,822 3457,1254 2625,1946C2458,2085 2085,2458 1946,2625C1138,3596 696,4667 579,5940C562,6115 562,6685 579,6860C637,7489 767,8041 981,8573C1218,9159 1524,9668 1946,10175C2085,10342 2458,10715 2625,10854C3647,11704 4815,12163 6140,12234C6278,12242 6772,12230 6920,12215Z" style="fill:white;fill-opacity:0.35;fill-rule:nonzero;"/>
                    </g>
                    <g transform="matrix(-0.000663245,0.0444716,0.0444716,0.000663245,450.316,6200.01)">
                        <path d="M6412,11683C6368,11662 6323,11609 6311,11563C6297,11514 6297,11077 6310,11028C6354,10871 6567,10841 6661,10978C6685,11013 6685,11014 6685,11295L6685,11577L6656,11618C6605,11692 6492,11723 6412,11683Z" style="fill:white;fill-opacity:0.35;fill-rule:nonzero;"/>
                    </g>
                    <g transform="matrix(-0.000663245,0.0444716,0.0444716,0.000663245,450.316,6200.01)">
                        <path d="M5075,11536C5004,11505 4951,11406 4965,11331C4978,11261 5082,10886 5095,10861C5138,10779 5227,10738 5312,10760C5399,10784 5459,10858 5460,10944C5460,10996 5344,11426 5318,11468C5288,11517 5224,11550 5159,11550C5129,11549 5091,11543 5075,11536Z" style="fill:white;fill-opacity:0.35;fill-rule:nonzero;"/>
                    </g>
                    <g transform="matrix(-0.000663245,0.0444716,0.0444716,0.000663245,450.316,6200.01)">
                        <path d="M7728,11480C7661,11444 7645,11411 7580,11169C7518,10940 7510,10886 7530,10826C7550,10764 7642,10700 7710,10700C7784,10700 7870,10765 7894,10838C7935,10964 8010,11273 8010,11314C8010,11423 7929,11500 7818,11500C7785,11499 7751,11492 7728,11480Z" style="fill:white;fill-opacity:0.35;fill-rule:nonzero;"/>
                    </g>
                    <g transform="matrix(-0.000663245,0.0444716,0.0444716,0.000663245,450.316,6200.01)">
                        <path d="M3795,11031C3717,10996 3671,10910 3685,10826C3693,10775 3909,10400 3959,10349C4060,10247 4235,10295 4276,10435C4293,10494 4289,10522 4255,10590C4213,10673 4039,10965 4017,10988C3961,11048 3871,11066 3795,11031Z" style="fill:white;fill-opacity:0.35;fill-rule:nonzero;"/>
                    </g>
                    <g transform="matrix(-0.000663245,0.0444716,0.0444716,0.000663245,450.316,6200.01)">
                        <path d="M8960,10951C8906,10922 8890,10899 8772,10694C8654,10488 8640,10456 8640,10401C8641,10241 8849,10153 8963,10263C9013,10312 9229,10698 9236,10753C9257,10902 9091,11020 8960,10951Z" style="fill:white;fill-opacity:0.35;fill-rule:nonzero;"/>
                    </g>
                    <g transform="matrix(-0.000663245,0.0444716,0.0444716,0.000663245,450.316,6200.01)">
                        <path d="M2670,10188C2604,10154 2567,10096 2566,10023C2566,9987 2572,9953 2583,9933C2604,9893 2918,9583 2968,9553C3009,9528 3088,9522 3137,9541C3201,9565 3260,9650 3260,9720C3260,9739 3251,9773 3241,9795C3217,9847 2886,10174 2837,10195C2785,10217 2722,10214 2670,10188Z" style="fill:white;fill-opacity:0.35;fill-rule:nonzero;"/>
                    </g>
                    <g transform="matrix(-0.000663245,0.0444716,0.0444716,0.000663245,450.316,6200.01)">
                        <path d="M9995,10146C9958,10129 9628,9796 9607,9755C9571,9683 9578,9606 9627,9541C9675,9479 9778,9452 9854,9484C9895,9501 10217,9827 10248,9882C10261,9906 10270,9940 10270,9964C10269,10040 10213,10124 10147,10149C10108,10164 10031,10162 9995,10146Z" style="fill:white;fill-opacity:0.35;fill-rule:nonzero;"/>
                    </g>
                    <g transform="matrix(-0.000663245,0.0444716,0.0444716,0.000663245,450.316,6200.01)">
                        <path d="M1900,9154C1812,9122 1775,9090 1752,9021C1728,8953 1746,8881 1799,8830C1819,8810 1927,8742 2040,8679C2244,8566 2245,8565 2312,8565C2371,8565 2382,8568 2416,8596C2484,8651 2495,8673 2495,8755C2495,8861 2476,8881 2264,9002C2171,9055 2072,9111 2043,9125C1991,9152 1928,9164 1900,9154Z" style="fill:white;fill-opacity:0.35;fill-rule:nonzero;"/>
                    </g>
                    <g transform="matrix(-0.000663245,0.0444716,0.0444716,0.000663245,450.316,6200.01)">
                        <path d="M10795,9107C10740,9082 10395,8868 10368,8842C10275,8755 10302,8593 10420,8532C10456,8513 10475,8510 10519,8514C10566,8518 10598,8534 10769,8637C10876,8702 10979,8767 10996,8783C11088,8863 11080,9016 10979,9086C10931,9119 10844,9129 10795,9107Z" style="fill:white;fill-opacity:0.35;fill-rule:nonzero;"/>
                    </g>
                    <g transform="matrix(-0.000663245,0.0444716,0.0444716,0.000663245,450.316,6200.01)">
                        <path d="M1385,7913C1374,7911 1355,7907 1342,7904C1330,7902 1302,7883 1280,7864C1179,7773 1202,7606 1323,7549C1346,7539 1464,7505 1585,7474C1828,7412 1864,7410 1932,7455C2040,7526 2040,7704 1932,7774C1908,7790 1813,7820 1657,7859C1527,7893 1417,7919 1412,7919C1408,7918 1396,7916 1385,7913Z" style="fill:white;fill-opacity:0.35;fill-rule:nonzero;"/>
                    </g>
                    <g transform="matrix(-0.000663245,0.0444716,0.0444716,0.000663245,450.316,6200.01)">
                        <path d="M11130,7786C11012,7751 10900,7716 10882,7706C10865,7697 10838,7671 10822,7648C10799,7613 10795,7596 10795,7540C10795,7484 10799,7467 10823,7432C10857,7379 10913,7350 10980,7350C11040,7350 11434,7460 11493,7493C11562,7532 11600,7624 11580,7702C11556,7792 11481,7850 11390,7849C11365,7848 11248,7820 11130,7786Z" style="fill:white;fill-opacity:0.35;fill-rule:nonzero;"/>
                    </g>
                    <g transform="matrix(-0.000663245,0.0444716,0.0444716,0.000663245,450.316,6200.01)">
                        <path d="M11184,6571C11086,6566 11069,6562 11033,6538C10928,6468 10912,6328 11001,6239C11059,6181 11087,6177 11370,6187C11612,6195 11616,6196 11662,6223C11696,6243 11715,6263 11734,6302C11772,6378 11765,6449 11713,6511C11663,6570 11624,6580 11450,6578C11365,6577 11245,6574 11184,6571Z" style="fill:white;fill-opacity:0.35;fill-rule:nonzero;"/>
                    </g>
                    <g transform="matrix(-0.000663245,0.0444716,0.0444716,0.000663245,450.316,6200.01)">
                        <path d="M7821,7365C6922,6863 6173,6439 6157,6424C6097,6367 6083,6274 6121,6197C6155,6131 6216,6045 6250,6017C6292,5981 6348,5966 6405,5974C6442,5980 6472,5997 6558,6063C7293,6622 9447,8265 9455,8271C9460,8276 9462,8280 9460,8280C9457,8279 8720,7868 7821,7365Z" style="fill:white;fill-opacity:0.35;fill-rule:nonzero;"/>
                    </g>
                </g>
            </g>
        </g>
    </g>
</svg>
